<svg width="19" height="20" viewBox="0 0 19 20" fill="none" xmlns="http://www.w3.org/2000/svg">
<path id="Vector" d="M8.70949 14.89C9.49742 14.89 10.2776 14.7348 11.0056 14.4332C11.7335 14.1317 12.395 13.6897 12.9521 13.1325C13.5093 12.5753 13.9512 11.9138 14.2528 11.1857C14.5543 10.4577 14.7095 9.6774 14.7095 8.88939C14.7095 8.10138 14.5543 7.32108 14.2528 6.59305C13.9512 5.86502 13.5093 5.20352 12.9521 4.64631C12.395 4.0891 11.7335 3.6471 11.0056 3.34554C10.2776 3.04398 9.49742 2.88877 8.70949 2.88877C7.11819 2.88877 5.59207 3.52098 4.46685 4.64631C3.34163 5.77164 2.70949 7.29793 2.70949 8.88939C2.70949 10.4809 3.34163 12.0071 4.46685 13.1325C5.59207 14.2578 7.11819 14.89 8.70949 14.89ZM15.0295 13.7959L18.6095 17.3763C18.7049 17.4686 18.781 17.579 18.8334 17.701C18.8857 17.8231 18.9132 17.9544 18.9142 18.0871C18.9153 18.2199 18.8899 18.3516 18.8395 18.4745C18.7892 18.5974 18.7148 18.709 18.6209 18.8028C18.5269 18.8966 18.4152 18.9708 18.2923 19.021C18.1693 19.0712 18.0376 19.0964 17.9049 19.0952C17.7721 19.0939 17.6409 19.0663 17.5189 19.0138C17.397 18.9613 17.2867 18.885 17.1945 18.7894L13.6145 15.209C12.0069 16.457 9.98428 17.0454 7.95824 16.8544C5.9322 16.6634 4.05509 15.7074 2.70904 14.181C1.36298 12.6546 0.649172 10.6725 0.712913 8.63829C0.776654 6.60405 1.61316 4.67058 3.05213 3.23145C4.49111 1.79233 6.42439 0.955739 8.45841 0.891991C10.4924 0.828243 12.4743 1.54213 14.0005 2.88832C15.5268 4.23451 16.4827 6.11182 16.6737 8.13806C16.8647 10.1643 16.2763 12.1872 15.0285 13.7949L15.0295 13.7959Z" fill="white"/>
</svg>
