<svg width="1047" height="1026" viewBox="0 0 1047 1026" fill="none" xmlns="http://www.w3.org/2000/svg">
<path d="M838.111 185.433C916.294 266.549 981.446 346.216 1017.64 446.163C1053.84 546.109 1059.63 666.335 1017.64 777.87C975.655 890.853 887.337 995.145 780.198 1019.77C673.059 1044.39 549.994 990.799 411.003 950.241C273.46 911.132 119.99 886.507 49.0468 798.149C-20.4488 709.79 -7.41834 557.697 34.5686 425.884C76.5555 295.519 147.499 183.984 243.055 107.213C340.06 28.9944 460.229 -14.4606 565.92 4.36988C671.611 23.2004 761.377 104.316 838.111 185.433Z" fill="url(#paint0_linear_39_162)"/>
<path d="M825.893 232.473C927.061 321.685 1018.24 423.319 1016.99 523.823C1015.74 625.457 923.314 724.832 820.897 797.105C719.729 869.377 609.819 913.419 489.917 921.323C370.014 930.357 240.12 903.255 167.679 830.982C93.9894 758.71 77.7526 641.266 81.4995 528.34C83.9975 414.285 108.977 304.746 181.418 215.534C255.108 127.452 376.259 59.6963 493.664 64.2133C611.068 68.7304 723.476 143.262 825.893 232.473Z" fill="url(#paint1_linear_39_162)"/>
<defs>
<linearGradient id="paint0_linear_39_162" x1="0" y1="1026" x2="1025.79" y2="-20.7851" gradientUnits="userSpaceOnUse">
<stop stop-color="#B1DCDF"/>
<stop offset="1" stop-color="#767878"/>
</linearGradient>
<linearGradient id="paint1_linear_39_162" x1="81" y1="923" x2="936.844" y2="-9.56157" gradientUnits="userSpaceOnUse">
<stop stop-color="#BEEAE7"/>
<stop offset="1" stop-color="#B7DDC6"/>
</linearGradient>
</defs>
</svg>
